HIERARCHY
ROOT Hips
{
 OFFSET 0.000000 0.000000 0.000000
 CHANNELS 6 Xposition Yposition Zposition Yrotation Xrotation Zrotation
 JOINT Chest
 {
  OFFSET 0.000000 9.910571 -0.011835
  CHANNELS 3 Yrotation Xrotation Zrotation
  JOINT Chest2
  {
   OFFSET 0.000000 10.789473 0.021497
   CHANNELS 3 Yrotation Xrotation Zrotation
   JOINT Chest3
   {
    OFFSET 0.000000 9.748205 0.000000
    CHANNELS 3 Yrotation Xrotation Zrotation
    JOINT Chest4
    {
     OFFSET 0.000000 9.748205 0.000000
     CHANNELS 3 Yrotation Xrotation Zrotation
     JOINT Neck
     {
      OFFSET 0.000000 13.998479 0.000000
      CHANNELS 3 Yrotation Xrotation Zrotation
      JOINT Head
      {
       OFFSET 0.000000 9.082285 0.051121
       CHANNELS 3 Yrotation Xrotation Zrotation
       End Site
       {
        OFFSET 0.000000 17.246134 0.026702
       }
      }
     }
     JOINT RightCollar
     {
      OFFSET -3.284495 7.824262 0.000000
      CHANNELS 3 Yrotation Xrotation Zrotation
      JOINT RightShoulder
      {
       OFFSET -15.534540 0.000000 0.000000
       CHANNELS 3 Yrotation Xrotation Zrotation
       JOINT RightElbow
       {
        OFFSET 0.000000 -28.251216 0.000000
        CHANNELS 3 Yrotation Xrotation Zrotation
        JOINT RightWrist
        {
         OFFSET 0.000000 -23.418114 0.012537
         CHANNELS 3 Yrotation Xrotation Zrotation
         End Site
         {
          OFFSET 0.000000 -17.723959 0.000000
         }
        }
       }
      }
     }
     JOINT LeftCollar
     {
      OFFSET 3.284495 7.824262 0.000000
      CHANNELS 3 Yrotation Xrotation Zrotation
      JOINT LeftShoulder
      {
       OFFSET 15.534540 0.000000 0.000000
       CHANNELS 3 Yrotation Xrotation Zrotation
       JOINT LeftElbow
       {
        OFFSET 0.000000 -28.251216 0.000000
        CHANNELS 3 Yrotation Xrotation Zrotation
        JOINT LeftWrist
        {
         OFFSET 0.000000 -23.418114 0.012537
         CHANNELS 3 Yrotation Xrotation Zrotation
         End Site
         {
          OFFSET 0.000000 -17.723959 0.000000
         }
        }
       }
      }
     }
    }
   }
  }
 }
 JOINT RightHip
 {
  OFFSET -8.142657 0.057990 0.005917
  CHANNELS 3 Yrotation Xrotation Zrotation
  JOINT RightKnee
  {
   OFFSET 0.000000 -49.716894 0.008478
   CHANNELS 3 Yrotation Xrotation Zrotation
   JOINT RightAnkle
   {
    OFFSET 0.000000 -43.994153 0.004166
    CHANNELS 3 Yrotation Xrotation Zrotation
    JOINT RightToe
    {
     OFFSET 0.000000 -7.619154 17.822051
     CHANNELS 3 Yrotation Xrotation Zrotation
     End Site
     {
      OFFSET 0.000000 -1.595627 7.159905
     }
    }
   }
  }
 }
 JOINT LeftHip
 {
  OFFSET 8.142657 0.057990 0.005917
  CHANNELS 3 Yrotation Xrotation Zrotation
  JOINT LeftKnee
  {
   OFFSET 0.000000 -49.716894 0.008478
   CHANNELS 3 Yrotation Xrotation Zrotation
   JOINT LeftAnkle
   {
    OFFSET 0.000000 -43.994153 0.004166
    CHANNELS 3 Yrotation Xrotation Zrotation
    JOINT LeftToe
    {
     OFFSET 0.000000 -7.619154 17.822051
     CHANNELS 3 Yrotation Xrotation Zrotation
     End Site
     {
      OFFSET 0.000000 -1.595627 7.159905
     }
    }
   }
  }
 }
}
MOTION
Frames: 11
Frame Time: 0.008333
496.523861 57.187574 374.005434 -55.581276 -55.294721 4.164266 -1.246570 21.997724 -3.054660 -0.390588 9.781995 -1.275933 -0.390588 9.781995 -1.275933 -0.271626 7.337350 -0.948304 -5.211635 16.460014 -1.945511 -8.982086 -5.585534 -1.754862 -0.475740 9.577576 12.483139 26.059457 -15.268053 -22.730043 -13.509001 -45.496155 39.304994 11.020131 -8.689708 -14.036517 -1.984271 13.342779 -10.877068 -9.856006 -19.806492 20.429019 25.338745 -64.565697 -19.754856 -33.539067 10.805960 -14.909871 -13.444588 -30.889974 1.269012 -31.414648 70.962215 -44.423645 0.566628 9.994079 -1.217637 0.039279 0.019317 0.017140 13.276068 -30.007249 10.493415 26.216691 71.317252 16.839692 5.693726 9.382810 7.661814 -0.033577 0.003222 -0.015269
496.527191 57.186757 374.006036 -55.590145 -55.286135 4.182026 -1.246156 21.994537 -3.062282 -0.391385 9.782808 -1.277210 -0.391385 9.782808 -1.277210 -0.272200 7.337962 -0.949246 -5.215076 16.455369 -1.946427 -8.988271 -5.594086 -1.755078 -0.475047 9.578622 12.485618 26.072078 -15.277928 -22.738865 -13.509836 -45.495918 39.301957 11.017255 -8.689679 -14.043011 -1.985482 13.340875 -10.878200 -9.855553 -19.816965 20.430300 25.263337 -64.511075 -19.683004 -33.520788 10.754232 -14.879532 -13.432807 -30.903385 1.256970 -31.420864 70.961021 -44.430387 0.597624 10.008465 -1.204717 0.023141 0.009021 0.010464 13.288241 -30.013385 10.477157 26.211988 71.313722 16.832827 5.670163 9.395642 7.659412 -0.022309 -0.001304 -0.012835
496.526814 57.186112 374.004948 -55.589444 -55.282672 4.184122 -1.249056 21.995116 -3.061881 -0.392416 9.782791 -1.277523 -0.392416 9.782791 -1.277523 -0.272966 7.337952 -0.949463 -5.219333 16.454591 -1.947243 -8.995905 -5.595433 -1.755038 -0.469964 9.585213 12.482309 26.082593 -15.287081 -22.744823 -13.512205 -45.499120 39.298196 11.006594 -8.688345 -14.051398 -1.984337 13.341861 -10.884082 -9.855894 -19.816608 20.433451 25.240525 -64.512982 -19.694153 -33.503015 10.763591 -14.850001 -13.429559 -30.907090 1.258058 -31.439993 70.958090 -44.450218 0.591614 10.007277 -1.203675 0.022132 0.010150 0.010330 13.286270 -30.016196 10.471127 26.253388 71.303564 16.871515 5.708146 9.387793 7.663850 -0.018429 0.000033 -0.010160
496.529729 57.185665 374.005505 -55.589244 -55.278474 4.187193 -1.251375 21.997327 -3.066968 -0.392548 9.783680 -1.277327 -0.392548 9.783680 -1.277327 -0.273066 7.338618 -0.949314 -5.220789 16.448992 -1.948585 -8.998280 -5.605845 -1.756692 -0.462069 9.585929 12.489816 26.085824 -15.293698 -22.753467 -13.512791 -45.503424 39.290663 11.002462 -8.685661 -14.045932 -1.987346 13.332861 -10.881956 -9.849366 -19.815115 20.432381 25.172445 -64.465434 -19.627506 -33.482754 10.712467 -14.818890 -13.426379 -30.913176 1.254721 -31.438893 70.959872 -44.449753 0.583423 10.007199 -1.202721 0.020538 0.011538 0.009772 13.286462 -30.016961 10.468627 26.249297 71.303940 16.861321 5.649922 9.402069 7.663431 -0.022809 -0.002597 -0.014209
496.530362 57.186698 374.005336 -55.592242 -55.278942 4.191387 -1.247903 22.001022 -3.067189 -0.391252 9.785192 -1.277647 -0.391252 9.785192 -1.277647 -0.272088 7.339750 -0.949572 -5.223161 16.443960 -1.948850 -9.002725 -5.615113 -1.756059 -0.466293 9.583464 12.497794 26.089044 -15.297128 -22.756668 -13.509696 -45.508479 39.285499 10.999073 -8.678815 -14.035256 -1.993433 13.324901 -10.880414 -9.846826 -19.812616 20.435564 25.143181 -64.464669 -19.634112 -33.459540 10.719986 -14.789901 -13.421101 -30.912823 1.253158 -31.445072 70.955245 -44.457297 0.583784 10.012226 -1.198462 0.018734 0.010166 0.008352 13.287571 -30.010269 10.464511 26.263572 71.292244 16.868314 5.701994 9.385580 7.677030 -0.020418 0.003234 -0.013348
496.533111 57.187796 374.005002 -55.597649 -55.279522 4.196088 -1.246985 22.006092 -3.067803 -0.391538 9.787991 -1.277836 -0.391538 9.787991 -1.277836 -0.272292 7.341850 -0.949706 -5.221833 16.435976 -1.949294 -9.000316 -5.629990 -1.756899 -0.461986 9.571055 12.498854 26.093670 -15.296929 -22.762257 -13.518945 -45.506728 39.288280 10.996658 -8.681291 -14.033741 -1.997847 13.314822 -10.878381 -9.849253 -19.818760 20.435059 25.065970 -64.412069 -19.555161 -33.443269 10.672237 -14.760160 -13.422392 -30.913914 1.254735 -31.421199 70.955695 -44.436511 0.572340 10.022939 -1.204231 0.020056 0.006672 0.010401 13.292860 -30.005497 10.465989 26.252083 71.289653 16.853682 5.675242 9.390030 7.679488 -0.020966 0.003013 -0.014789
496.532530 57.187335 374.002195 -55.601855 -55.276773 4.196156 -1.240324 22.007837 -3.060433 -0.390906 9.788606 -1.277519 -0.390906 9.788606 -1.277519 -0.271823 7.342310 -0.949478 -5.222149 16.429370 -1.948824 -9.001249 -5.642203 -1.755539 -0.470440 9.575459 12.501264 26.100934 -15.310317 -22.769930 -13.515936 -45.508392 39.284073 10.991788 -8.675303 -14.027760 -1.999841 13.307439 -10.876653 -9.862809 -19.813285 20.440203 25.050542 -64.410719 -19.570239 -33.425721 10.690758 -14.726065 -13.423796 -30.917196 1.262551 -31.423008 70.951512 -44.438102 0.588003 10.030754 -1.208077 0.022320 0.004628 0.013287 13.293108 -30.009088 10.472100 26.285072 71.286593 16.886029 5.684695 9.382533 7.680820 -0.014179 0.004221 -0.013251
496.531863 57.188288 373.999036 -55.604822 -55.274939 4.195619 -1.237798 22.013100 -3.055898 -0.391403 9.790471 -1.276709 -0.391403 9.790471 -1.276709 -0.272204 7.343709 -0.948862 -5.221449 16.419443 -1.951614 -8.999220 -5.660801 -1.760398 -0.468806 9.572515 12.502538 26.104875 -15.318237 -22.778032 -13.516957 -45.513498 39.279159 10.993173 -8.676385 -14.027007 -2.003228 13.296649 -10.877204 -9.866617 -19.813818 20.442047 24.983996 -64.363332 -19.500207 -33.409179 10.638468 -14.704738 -13.422279 -30.915025 1.268510 -31.414128 70.942893 -44.428026 0.602148 10.037612 -1.207696 0.025307 0.005039 0.013849 13.300172 -30.006720 10.474248 26.271883 71.282406 16.874440 5.698450 9.371592 7.686777 -0.013695 0.009235 -0.013020
496.530731 57.188585 373.996455 -55.599263 -55.271138 4.189146 -1.235087 22.016933 -3.052269 -0.391207 9.791999 -1.275799 -0.391207 9.791999 -1.275799 -0.272068 7.344854 -0.948182 -5.219243 16.409992 -1.951563 -8.995398 -5.678399 -1.760549 -0.480882 9.570057 12.502766 26.110207 -15.327001 -22.781909 -13.512168 -45.517187 39.276739 10.991831 -8.681027 -14.022909 -2.008228 13.289055 -10.872605 -9.868621 -19.818835 20.440646 24.955444 -64.362060 -19.512078 -33.391402 10.652762 -14.667063 -13.424762 -30.919661 1.275508 -31.396211 70.951000 -44.409029 0.574600 10.041040 -1.213523 0.026418 0.003157 0.014768 13.297761 -30.009325 10.476277 26.261689 71.280955 16.863612 5.721006 9.363234 7.693475 -0.011661 0.011144 -0.013353
496.530106 57.188765 373.994306 -55.599707 -55.266442 4.191564 -1.232939 22.020410 -3.051698 -0.391023 9.793602 -1.275281 -0.391023 9.793602 -1.275281 -0.271935 7.346056 -0.947796 -5.216605 16.399629 -1.952384 -8.990485 -5.697757 -1.762419 -0.483327 9.567700 12.503849 26.117142 -15.333448 -22.785158 -13.502228 -45.521040 39.264339 10.987943 -8.690328 -14.032130 -2.015429 13.279745 -10.871147 -9.863612 -19.826475 20.442070 24.891505 -64.310556 -19.452878 -33.372954 10.599391 -14.645181 -13.422414 -30.927284 1.275300 -31.398194 70.952621 -44.410579 0.578352 10.045063 -1.214552 0.026173 0.001487 0.015494 13.305709 -30.011293 10.472036 26.246146 71.281044 16.850774 5.717452 9.359686 7.695901 -0.012017 0.012311 -0.013327
496.531956 57.188399 373.994654 -55.593540 -55.260874 4.190038 -1.233852 22.022944 -3.055308 -0.389173 9.794837 -1.274654 -0.389173 9.794837 -1.274654 -0.270559 7.346978 -0.947356 -5.218011 16.389622 -1.950968 -8.993874 -5.716186 -1.758725 -0.493922 9.564839 12.507124 26.118077 -15.339905 -22.783435 -13.486456 -45.528745 39.249875 10.981035 -8.690884 -14.030523 -2.013930 13.270292 -10.867135 -9.878359 -19.825143 20.448475 24.873126 -64.309151 -19.466140 -33.362896 10.612747 -14.613164 -13.422130 -30.933527 1.264829 -31.391854 70.955279 -44.403223 0.585625 10.040401 -1.209672 0.020320 0.005232 0.012702 13.308162 -30.019132 10.462889 26.246843 71.283213 16.853891 5.682152 9.373277 7.693289 -0.016812 0.006342 -0.013366
